<mxfile host="app.diagrams.net" agent="Mozilla/5.0 (Macintosh; Intel Mac OS X 10_15_7) AppleWebKit/537.36 (KHTML, like Gecko) Chrome/129.0.0.0 Safari/537.36" version="24.7.17">
  <diagram name="Page-1" id="Q_ETs1spCWIvb_cMKTv6">
    <mxGraphModel dx="1406" dy="2167" grid="1" gridSize="10" guides="1" tooltips="1" connect="1" arrows="1" fold="1" page="1" pageScale="1" pageWidth="850" pageHeight="1100" math="0" shadow="0">
      <root>
        <mxCell id="0" />
        <mxCell id="1" parent="0" />
        <mxCell id="0mRYG6f4xroUVBfOZ1XW-1" value="&lt;p style=&quot;line-height: 110%;&quot;&gt;Animal Management&lt;/p&gt;" style="whiteSpace=wrap;html=1;aspect=fixed;fillColor=#dae8fc;strokeColor=#6c8ebf;" vertex="1" parent="1">
          <mxGeometry x="20" y="10" width="300" height="300" as="geometry" />
        </mxCell>
        <mxCell id="0mRYG6f4xroUVBfOZ1XW-2" value="Habitat Management" style="whiteSpace=wrap;html=1;aspect=fixed;fillColor=#dae8fc;strokeColor=#6c8ebf;" vertex="1" parent="1">
          <mxGeometry x="530" y="10" width="300" height="300" as="geometry" />
        </mxCell>
        <mxCell id="0mRYG6f4xroUVBfOZ1XW-3" value="Migration Management" style="whiteSpace=wrap;html=1;aspect=fixed;fillColor=#dae8fc;strokeColor=#6c8ebf;" vertex="1" parent="1">
          <mxGeometry x="160" y="380" width="530" height="530" as="geometry" />
        </mxCell>
        <mxCell id="0mRYG6f4xroUVBfOZ1XW-4" value="Animal" style="rounded=0;whiteSpace=wrap;html=1;fillColor=#f8cecc;strokeColor=#b85450;" vertex="1" parent="1">
          <mxGeometry x="70" y="50" width="200" height="30" as="geometry" />
        </mxCell>
        <mxCell id="0mRYG6f4xroUVBfOZ1XW-17" value="&lt;font color=&quot;#ff00ff&quot; style=&quot;&quot;&gt;register_animal(), &lt;br&gt;get_animal_by_id(),&lt;br&gt;remove_animal()&lt;/font&gt;" style="edgeStyle=orthogonalEdgeStyle;rounded=0;orthogonalLoop=1;jettySize=auto;html=1;exitX=1;exitY=0.5;exitDx=0;exitDy=0;entryX=1;entryY=0.5;entryDx=0;entryDy=0;labelBackgroundColor=#FFFFFF;" edge="1" parent="1" source="0mRYG6f4xroUVBfOZ1XW-5" target="0mRYG6f4xroUVBfOZ1XW-4">
          <mxGeometry relative="1" as="geometry" />
        </mxCell>
        <mxCell id="0mRYG6f4xroUVBfOZ1XW-5" value="AnimalManager" style="rounded=0;whiteSpace=wrap;html=1;fillColor=#f8cecc;strokeColor=#b85450;" vertex="1" parent="1">
          <mxGeometry x="70" y="250" width="200" height="30" as="geometry" />
        </mxCell>
        <mxCell id="0mRYG6f4xroUVBfOZ1XW-19" value="&lt;font color=&quot;#ff00ff&quot;&gt;assign_animals_to_habitat(),&lt;br&gt;get_animals_in_habitat()&lt;/font&gt;" style="edgeStyle=orthogonalEdgeStyle;rounded=0;orthogonalLoop=1;jettySize=auto;html=1;exitX=0;exitY=0.5;exitDx=0;exitDy=0;entryX=0.5;entryY=0;entryDx=0;entryDy=0;" edge="1" parent="1" source="0mRYG6f4xroUVBfOZ1XW-7" target="0mRYG6f4xroUVBfOZ1XW-4">
          <mxGeometry x="-0.0023" relative="1" as="geometry">
            <mxPoint as="offset" />
          </mxGeometry>
        </mxCell>
        <mxCell id="0mRYG6f4xroUVBfOZ1XW-7" value="Habitat" style="rounded=0;whiteSpace=wrap;html=1;fillColor=#f8cecc;strokeColor=#b85450;" vertex="1" parent="1">
          <mxGeometry x="575" y="50" width="210" height="30" as="geometry" />
        </mxCell>
        <mxCell id="0mRYG6f4xroUVBfOZ1XW-18" value="&lt;font color=&quot;#ff00ff&quot;&gt;create_habitat(),&lt;br&gt;get_habitat_by_id(),&lt;br&gt;remove_habitat()&lt;/font&gt;" style="edgeStyle=orthogonalEdgeStyle;rounded=0;orthogonalLoop=1;jettySize=auto;html=1;exitX=1;exitY=0.5;exitDx=0;exitDy=0;entryX=1;entryY=0.5;entryDx=0;entryDy=0;" edge="1" parent="1" source="0mRYG6f4xroUVBfOZ1XW-8" target="0mRYG6f4xroUVBfOZ1XW-7">
          <mxGeometry x="-0.0005" relative="1" as="geometry">
            <mxPoint as="offset" />
          </mxGeometry>
        </mxCell>
        <mxCell id="0mRYG6f4xroUVBfOZ1XW-8" value="HabitatManager" style="rounded=0;whiteSpace=wrap;html=1;fillColor=#f8cecc;strokeColor=#b85450;" vertex="1" parent="1">
          <mxGeometry x="575" y="250" width="210" height="30" as="geometry" />
        </mxCell>
        <mxCell id="0mRYG6f4xroUVBfOZ1XW-22" value="&lt;font color=&quot;#ff00ff&quot;&gt;start_location,&lt;br&gt;destination&lt;/font&gt;" style="edgeStyle=orthogonalEdgeStyle;rounded=0;orthogonalLoop=1;jettySize=auto;html=1;exitX=0.5;exitY=0;exitDx=0;exitDy=0;entryX=0;entryY=0.75;entryDx=0;entryDy=0;" edge="1" parent="1" source="0mRYG6f4xroUVBfOZ1XW-9" target="0mRYG6f4xroUVBfOZ1XW-7">
          <mxGeometry relative="1" as="geometry" />
        </mxCell>
        <mxCell id="0mRYG6f4xroUVBfOZ1XW-9" value="Migration" style="rounded=0;whiteSpace=wrap;html=1;fillColor=#f8cecc;strokeColor=#b85450;" vertex="1" parent="1">
          <mxGeometry x="320" y="440" width="210" height="30" as="geometry" />
        </mxCell>
        <mxCell id="0mRYG6f4xroUVBfOZ1XW-20" value="&lt;font color=&quot;#ff00ff&quot;&gt;register_migration(),&lt;br&gt;get_migration_by_id(),&lt;br&gt;remove_migration()&lt;/font&gt;" style="edgeStyle=orthogonalEdgeStyle;rounded=0;orthogonalLoop=1;jettySize=auto;html=1;exitX=0.25;exitY=0;exitDx=0;exitDy=0;entryX=0;entryY=0.5;entryDx=0;entryDy=0;" edge="1" parent="1" source="0mRYG6f4xroUVBfOZ1XW-10" target="0mRYG6f4xroUVBfOZ1XW-9">
          <mxGeometry relative="1" as="geometry" />
        </mxCell>
        <mxCell id="0mRYG6f4xroUVBfOZ1XW-21" value="&lt;font color=&quot;#ff00ff&quot;&gt;register_migration_path(),&lt;br&gt;get_migration_path_by_id(),&lt;br&gt;remove_migration_path()&lt;/font&gt;" style="edgeStyle=orthogonalEdgeStyle;rounded=0;orthogonalLoop=1;jettySize=auto;html=1;exitX=0.5;exitY=1;exitDx=0;exitDy=0;entryX=0.5;entryY=1;entryDx=0;entryDy=0;" edge="1" parent="1" source="0mRYG6f4xroUVBfOZ1XW-10" target="0mRYG6f4xroUVBfOZ1XW-11">
          <mxGeometry relative="1" as="geometry" />
        </mxCell>
        <mxCell id="0mRYG6f4xroUVBfOZ1XW-23" style="edgeStyle=orthogonalEdgeStyle;rounded=0;orthogonalLoop=1;jettySize=auto;html=1;exitX=0.75;exitY=0;exitDx=0;exitDy=0;entryX=1;entryY=0;entryDx=0;entryDy=0;" edge="1" parent="1" source="0mRYG6f4xroUVBfOZ1XW-10" target="0mRYG6f4xroUVBfOZ1XW-7">
          <mxGeometry relative="1" as="geometry">
            <Array as="points">
              <mxPoint x="348" y="770" />
              <mxPoint x="910" y="770" />
              <mxPoint x="910" y="30" />
              <mxPoint x="785" y="30" />
            </Array>
          </mxGeometry>
        </mxCell>
        <mxCell id="0mRYG6f4xroUVBfOZ1XW-24" value="&lt;font color=&quot;#ff00ff&quot;&gt;register_migration(),&lt;br&gt;get_migrations_by_start_location(),&lt;br&gt;get_migrations_by_destination()&lt;/font&gt;" style="edgeLabel;html=1;align=center;verticalAlign=middle;resizable=0;points=[];" vertex="1" connectable="0" parent="0mRYG6f4xroUVBfOZ1XW-23">
          <mxGeometry x="0.3061" y="-1" relative="1" as="geometry">
            <mxPoint as="offset" />
          </mxGeometry>
        </mxCell>
        <mxCell id="0mRYG6f4xroUVBfOZ1XW-10" value="MigrationManager" style="rounded=0;whiteSpace=wrap;html=1;fillColor=#f8cecc;strokeColor=#b85450;" vertex="1" parent="1">
          <mxGeometry x="190" y="830" width="210" height="30" as="geometry" />
        </mxCell>
        <mxCell id="0mRYG6f4xroUVBfOZ1XW-25" style="edgeStyle=orthogonalEdgeStyle;rounded=0;orthogonalLoop=1;jettySize=auto;html=1;exitX=1;exitY=0.5;exitDx=0;exitDy=0;entryX=0.5;entryY=0;entryDx=0;entryDy=0;" edge="1" parent="1" source="0mRYG6f4xroUVBfOZ1XW-11" target="0mRYG6f4xroUVBfOZ1XW-7">
          <mxGeometry relative="1" as="geometry">
            <Array as="points">
              <mxPoint x="1030" y="845" />
              <mxPoint x="1030" />
              <mxPoint x="680" />
            </Array>
          </mxGeometry>
        </mxCell>
        <mxCell id="0mRYG6f4xroUVBfOZ1XW-26" value="&lt;font color=&quot;#ff00ff&quot;&gt;start_location,&lt;br&gt;destination&lt;/font&gt;" style="edgeLabel;html=1;align=center;verticalAlign=middle;resizable=0;points=[];" vertex="1" connectable="0" parent="0mRYG6f4xroUVBfOZ1XW-25">
          <mxGeometry x="0.2161" y="-4" relative="1" as="geometry">
            <mxPoint y="-1" as="offset" />
          </mxGeometry>
        </mxCell>
        <mxCell id="0mRYG6f4xroUVBfOZ1XW-11" value="Migration Path" style="rounded=0;whiteSpace=wrap;html=1;fillColor=#f8cecc;strokeColor=#b85450;" vertex="1" parent="1">
          <mxGeometry x="450" y="830" width="210" height="30" as="geometry" />
        </mxCell>
      </root>
    </mxGraphModel>
  </diagram>
</mxfile>
